<svg width="900" height="900" viewBox="0 0 900 900" fill="none" xmlns="http://www.w3.org/2000/svg">
<g clip-path="url(#clip0_1179_114)">
<rect width="900" height="900" fill="white"/>
<path d="M300.811 438.04V343.528H312.955L314.011 353.56H314.803C316.563 350.304 319.203 347.576 322.723 345.376C326.331 343.088 330.599 341.944 335.527 341.944C340.631 341.944 345.295 343.264 349.519 345.904C353.743 348.456 357.087 352.284 359.551 357.388C362.103 362.404 363.379 368.696 363.379 376.264C363.379 383.744 362.059 390.036 359.419 395.14C356.867 400.244 353.391 404.116 348.991 406.756C344.591 409.308 339.663 410.584 334.207 410.584C329.367 410.584 325.319 409.616 322.063 407.68C318.807 405.744 316.387 403.544 314.803 401.08V438.04H300.811ZM331.831 397.252C336.759 397.252 340.851 395.492 344.107 391.972C347.451 388.452 349.123 383.172 349.123 376.132C349.123 369.092 347.451 363.856 344.107 360.424C340.851 356.992 336.759 355.276 331.831 355.276C326.815 355.276 322.635 357.036 319.291 360.556C316.035 363.988 314.407 369.224 314.407 376.264C314.407 383.216 316.035 388.452 319.291 391.972C322.635 395.492 326.815 397.252 331.831 397.252ZM409.132 333.496C406.052 333.496 403.456 332.528 401.344 330.592C399.32 328.568 398.308 326.104 398.308 323.2C398.308 320.296 399.32 317.876 401.344 315.94C403.456 314.004 406.052 313.036 409.132 313.036C412.3 313.036 414.896 314.004 416.92 315.94C419.032 317.876 420.088 320.296 420.088 323.2C420.088 326.104 419.032 328.568 416.92 330.592C414.896 332.528 412.3 333.496 409.132 333.496ZM382.864 409V396.856H403.456V360.028C403.456 357.124 402.048 355.672 399.232 355.672H384.712V343.528H401.74C407.196 343.528 411.156 344.804 413.62 347.356C416.172 349.82 417.448 353.78 417.448 359.236V396.856H438.04V409H382.864ZM460.296 409V343.528H472.44L473.628 353.296H474.288C476.048 350.128 478.776 347.444 482.472 345.244C486.168 343.044 490.436 341.944 495.276 341.944C503.284 341.944 509.312 344.364 513.36 349.204C517.408 354.044 519.432 361.172 519.432 370.588V409H505.44V372.304C505.44 366.848 504.296 362.624 502.008 359.632C499.72 356.64 496.112 355.144 491.184 355.144C486.344 355.144 482.296 356.772 479.04 360.028C475.872 363.284 474.288 367.992 474.288 374.152V409H460.296ZM567.296 390.124C563.248 390.124 559.508 389.464 556.076 388.144L552.776 392.104C551.72 393.424 551.412 394.7 551.852 395.932C552.38 397.076 553.568 397.648 555.416 397.648H572.708C580.364 397.648 586.524 399.276 591.188 402.532C595.94 405.7 598.316 410.584 598.316 417.184C598.316 421.32 597.26 425.06 595.148 428.404C593.124 431.836 589.824 434.564 585.248 436.588C580.76 438.612 574.82 439.624 567.428 439.624C558.1 439.624 550.576 437.864 544.856 434.344C539.224 430.912 536.408 425.72 536.408 418.768C536.408 416.304 536.98 414.016 538.124 411.904C539.356 409.88 540.94 408.032 542.876 406.36C540.5 404.6 539.048 402.136 538.52 398.968C538.08 395.712 539.048 392.588 541.424 389.596L547.232 382.204C543.096 377.804 541.028 372.392 541.028 365.968C541.028 361.656 542.04 357.696 544.064 354.088C546.176 350.392 549.168 347.444 553.04 345.244C557 343.044 561.752 341.944 567.296 341.944C570.904 341.944 574.248 342.472 577.328 343.528H602.012V352.768L590.528 353.428V354.616C592.376 358.048 593.3 361.832 593.3 365.968C593.3 370.28 592.244 374.284 590.132 377.98C588.108 381.676 585.16 384.624 581.288 386.824C577.416 389.024 572.752 390.124 567.296 390.124ZM567.296 378.904C571.168 378.904 574.336 377.76 576.8 375.472C579.352 373.184 580.628 370.016 580.628 365.968C580.628 362.096 579.352 359.016 576.8 356.728C574.336 354.44 571.168 353.296 567.296 353.296C563.336 353.296 560.08 354.44 557.528 356.728C555.064 359.016 553.832 362.096 553.832 365.968C553.832 370.016 555.064 373.184 557.528 375.472C560.08 377.76 563.336 378.904 567.296 378.904ZM549.608 417.712C549.608 421.232 551.28 423.828 554.624 425.5C558.056 427.172 562.324 428.008 567.428 428.008C572.884 428.008 577.196 427.084 580.364 425.236C583.532 423.388 585.116 420.792 585.116 417.448C585.116 414.632 583.972 412.388 581.684 410.716C579.396 409.132 575.524 408.34 570.068 408.34H554.624C551.28 410.98 549.608 414.104 549.608 417.712ZM300.811 610.04V515.528H312.955L314.011 525.56H314.803C316.563 522.304 319.203 519.576 322.723 517.376C326.331 515.088 330.599 513.944 335.527 513.944C340.631 513.944 345.295 515.264 349.519 517.904C353.743 520.456 357.087 524.284 359.551 529.388C362.103 534.404 363.379 540.696 363.379 548.264C363.379 555.744 362.059 562.036 359.419 567.14C356.867 572.244 353.391 576.116 348.991 578.756C344.591 581.308 339.663 582.584 334.207 582.584C329.367 582.584 325.319 581.616 322.063 579.68C318.807 577.744 316.387 575.544 314.803 573.08V610.04H300.811ZM331.831 569.252C336.759 569.252 340.851 567.492 344.107 563.972C347.451 560.452 349.123 555.172 349.123 548.132C349.123 541.092 347.451 535.856 344.107 532.424C340.851 528.992 336.759 527.276 331.831 527.276C326.815 527.276 322.635 529.036 319.291 532.556C316.035 535.988 314.407 541.224 314.407 548.264C314.407 555.216 316.035 560.452 319.291 563.972C322.635 567.492 326.815 569.252 331.831 569.252ZM410.452 582.584C404.204 582.584 398.616 581.176 393.688 578.36C388.76 575.544 384.888 571.584 382.072 566.48C379.256 561.288 377.848 555.216 377.848 548.264C377.848 541.312 379.256 535.284 382.072 530.18C384.888 524.988 388.76 520.984 393.688 518.168C398.616 515.352 404.248 513.944 410.584 513.944C416.92 513.944 422.508 515.352 427.348 518.168C432.276 520.984 436.104 524.988 438.832 530.18C441.648 535.284 443.056 541.312 443.056 548.264C443.056 555.216 441.648 561.288 438.832 566.48C436.016 571.584 432.144 575.544 427.216 578.36C422.376 581.176 416.788 582.584 410.452 582.584ZM410.452 569.252C413.796 569.252 416.876 568.504 419.692 567.008C422.508 565.512 424.752 563.224 426.424 560.144C428.184 556.976 429.064 553.016 429.064 548.264C429.064 543.424 428.184 539.464 426.424 536.384C424.752 533.304 422.508 531.016 419.692 529.52C416.964 528.024 413.928 527.276 410.584 527.276C407.24 527.276 404.16 528.024 401.344 529.52C398.528 531.016 396.24 533.304 394.48 536.384C392.808 539.464 391.972 543.424 391.972 548.264C391.972 555.48 393.776 560.804 397.384 564.236C401.08 567.58 405.436 569.252 410.452 569.252ZM460.296 581V515.528H472.44L473.628 525.296H474.288C476.048 522.128 478.776 519.444 482.472 517.244C486.168 515.044 490.436 513.944 495.276 513.944C503.284 513.944 509.312 516.364 513.36 521.204C517.408 526.044 519.432 533.172 519.432 542.588V581H505.44V544.304C505.44 538.848 504.296 534.624 502.008 531.632C499.72 528.64 496.112 527.144 491.184 527.144C486.344 527.144 482.296 528.772 479.04 532.028C475.872 535.284 474.288 539.992 474.288 546.152V581H460.296ZM567.296 562.124C563.248 562.124 559.508 561.464 556.076 560.144L552.776 564.104C551.72 565.424 551.412 566.7 551.852 567.932C552.38 569.076 553.568 569.648 555.416 569.648H572.708C580.364 569.648 586.524 571.276 591.188 574.532C595.94 577.7 598.316 582.584 598.316 589.184C598.316 593.32 597.26 597.06 595.148 600.404C593.124 603.836 589.824 606.564 585.248 608.588C580.76 610.612 574.82 611.624 567.428 611.624C558.1 611.624 550.576 609.864 544.856 606.344C539.224 602.912 536.408 597.72 536.408 590.768C536.408 588.304 536.98 586.016 538.124 583.904C539.356 581.88 540.94 580.032 542.876 578.36C540.5 576.6 539.048 574.136 538.52 570.968C538.08 567.712 539.048 564.588 541.424 561.596L547.232 554.204C543.096 549.804 541.028 544.392 541.028 537.968C541.028 533.656 542.04 529.696 544.064 526.088C546.176 522.392 549.168 519.444 553.04 517.244C557 515.044 561.752 513.944 567.296 513.944C570.904 513.944 574.248 514.472 577.328 515.528H602.012V524.768L590.528 525.428V526.616C592.376 530.048 593.3 533.832 593.3 537.968C593.3 542.28 592.244 546.284 590.132 549.98C588.108 553.676 585.16 556.624 581.288 558.824C577.416 561.024 572.752 562.124 567.296 562.124ZM567.296 550.904C571.168 550.904 574.336 549.76 576.8 547.472C579.352 545.184 580.628 542.016 580.628 537.968C580.628 534.096 579.352 531.016 576.8 528.728C574.336 526.44 571.168 525.296 567.296 525.296C563.336 525.296 560.08 526.44 557.528 528.728C555.064 531.016 553.832 534.096 553.832 537.968C553.832 542.016 555.064 545.184 557.528 547.472C560.08 549.76 563.336 550.904 567.296 550.904ZM549.608 589.712C549.608 593.232 551.28 595.828 554.624 597.5C558.056 599.172 562.324 600.008 567.428 600.008C572.884 600.008 577.196 599.084 580.364 597.236C583.532 595.388 585.116 592.792 585.116 589.448C585.116 586.632 583.972 584.388 581.684 582.716C579.396 581.132 575.524 580.34 570.068 580.34H554.624C551.28 582.98 549.608 586.104 549.608 589.712Z" fill="#4542F4"/>
<circle cx="795.5" cy="-114.5" r="425.5" fill="#4542F4" fill-opacity="0.03"/>
<circle cx="141.5" cy="996.5" r="425.5" fill="#4542F4" fill-opacity="0.03"/>
<path d="M271.269 833.248C269.729 833.248 268.431 832.764 267.375 831.796C266.363 830.784 265.857 829.552 265.857 828.1C265.857 826.648 266.363 825.438 267.375 824.47C268.431 823.502 269.729 823.018 271.269 823.018C272.853 823.018 274.151 823.502 275.163 824.47C276.219 825.438 276.747 826.648 276.747 828.1C276.747 829.552 276.219 830.784 275.163 831.796C274.151 832.764 272.853 833.248 271.269 833.248ZM258.135 871V864.928H268.431V846.514C268.431 845.062 267.727 844.336 266.319 844.336H259.059V838.264H267.573C270.301 838.264 272.281 838.902 273.513 840.178C274.789 841.41 275.427 843.39 275.427 846.118V864.928H285.723V871H258.135ZM296.851 871V838.264H302.923L303.517 843.148H303.847C304.727 841.564 306.091 840.222 307.939 839.122C309.787 838.022 311.921 837.472 314.341 837.472C318.345 837.472 321.359 838.682 323.383 841.102C325.407 843.522 326.419 847.086 326.419 851.794V871H319.423V852.652C319.423 849.924 318.851 847.812 317.707 846.316C316.563 844.82 314.759 844.072 312.295 844.072C309.875 844.072 307.851 844.886 306.223 846.514C304.639 848.142 303.847 850.496 303.847 853.576V871H296.851ZM354.641 871C351.429 871 348.877 870.23 346.985 868.69C345.093 867.106 344.147 864.312 344.147 860.308V844.204H335.897V838.264H340.781C343.025 838.264 344.345 837.164 344.741 834.964L345.731 829.684H351.143V838.264H364.079V844.204H351.143V860.176C351.143 861.892 351.517 863.102 352.265 863.806C353.057 864.466 354.399 864.796 356.291 864.796H363.947V871H354.641ZM391.048 871.792C387.88 871.792 385.086 871.088 382.666 869.68C380.246 868.228 378.354 866.226 376.99 863.674C375.626 861.122 374.944 858.152 374.944 854.764C374.944 851.332 375.604 848.318 376.924 845.722C378.288 843.126 380.18 841.102 382.6 839.65C385.064 838.198 387.902 837.472 391.114 837.472C394.282 837.472 397.01 838.198 399.298 839.65C401.586 841.058 403.346 842.95 404.578 845.326C405.854 847.702 406.492 850.32 406.492 853.18C406.492 853.62 406.492 854.104 406.492 854.632C406.492 855.116 406.47 855.666 406.426 856.282H381.808C382.028 859.318 383.018 861.628 384.778 863.212C386.538 864.752 388.606 865.522 390.982 865.522C393.05 865.522 394.678 865.104 395.866 864.268C397.098 863.388 398 862.2 398.572 860.704H405.634C404.842 863.828 403.192 866.468 400.684 868.624C398.176 870.736 394.964 871.792 391.048 871.792ZM391.048 843.544C388.892 843.544 386.978 844.204 385.306 845.524C383.634 846.8 382.556 848.604 382.072 850.936H399.496C399.32 848.736 398.462 846.954 396.922 845.59C395.382 844.226 393.424 843.544 391.048 843.544ZM415.508 871V864.928H423.494V846.514C423.494 845.062 422.79 844.336 421.382 844.336H416.168V838.264H424.022C425.826 838.264 427.3 838.792 428.444 839.848C429.588 840.86 430.16 842.29 430.16 844.138V844.93H430.49C430.974 842.466 432.008 840.618 433.592 839.386C435.22 838.11 437.574 837.472 440.654 837.472H445.736V844.864H438.608C436.012 844.864 434.01 845.766 432.602 847.57C431.194 849.374 430.49 851.53 430.49 854.038V864.928H440.654V871H415.508ZM466.83 871.792C464.234 871.792 462.056 871.352 460.296 870.472C458.536 869.548 457.216 868.338 456.336 866.842C455.456 865.302 455.016 863.63 455.016 861.826C455.016 858.614 456.182 856.106 458.514 854.302C460.89 852.498 464.234 851.596 468.546 851.596H476.994V850.87C476.994 845.942 474.706 843.478 470.13 843.478C468.238 843.478 466.632 843.896 465.312 844.732C464.036 845.524 463.178 846.822 462.738 848.626H455.742C456.094 845.194 457.568 842.488 460.164 840.508C462.804 838.484 466.126 837.472 470.13 837.472C474.97 837.472 478.49 838.66 480.69 841.036C482.89 843.412 483.99 846.69 483.99 850.87V871H478.05L477.456 866.182H476.994C476.026 867.722 474.816 869.042 473.364 870.142C471.912 871.242 469.734 871.792 466.83 871.792ZM468.15 865.918C471.01 865.918 473.144 865.06 474.552 863.344C476.004 861.584 476.796 859.362 476.928 856.678H469.272C466.764 856.678 464.982 857.096 463.926 857.932C462.914 858.724 462.408 859.846 462.408 861.298C462.408 862.75 462.914 863.894 463.926 864.73C464.982 865.522 466.39 865.918 468.15 865.918ZM509.374 871.396C507.746 871.396 506.36 870.868 505.216 869.812C504.072 868.712 503.5 867.392 503.5 865.852C503.5 864.312 504.072 863.014 505.216 861.958C506.36 860.902 507.746 860.374 509.374 860.374C511.046 860.374 512.432 860.902 513.532 861.958C514.676 863.014 515.248 864.312 515.248 865.852C515.248 867.392 514.676 868.712 513.532 869.812C512.432 870.868 511.046 871.396 509.374 871.396ZM547.166 871.792C544.438 871.792 541.996 871.154 539.84 869.878C537.684 868.558 535.968 866.622 534.692 864.07C533.46 861.518 532.844 858.372 532.844 854.632C532.844 850.892 533.482 847.746 534.758 845.194C536.034 842.642 537.75 840.728 539.906 839.452C542.106 838.132 544.548 837.472 547.232 837.472C549.74 837.472 551.808 837.956 553.436 838.924C555.064 839.848 556.274 841.036 557.066 842.488V823.48H564.062V871H558.056L557.462 866.182H557.066C556.186 867.898 554.932 869.262 553.304 870.274C551.72 871.286 549.674 871.792 547.166 871.792ZM548.618 865.126C551.126 865.126 553.194 864.246 554.822 862.486C556.494 860.726 557.33 858.108 557.33 854.632C557.33 851.112 556.494 848.494 554.822 846.778C553.194 845.018 551.126 844.138 548.618 844.138C546.11 844.138 544.02 845.018 542.348 846.778C540.72 848.538 539.906 851.178 539.906 854.698C539.906 858.174 540.72 860.792 542.348 862.552C544.02 864.268 546.11 865.126 548.618 865.126ZM588.919 871.792C585.751 871.792 582.957 871.088 580.537 869.68C578.117 868.228 576.225 866.226 574.861 863.674C573.497 861.122 572.815 858.152 572.815 854.764C572.815 851.332 573.475 848.318 574.795 845.722C576.159 843.126 578.051 841.102 580.471 839.65C582.935 838.198 585.773 837.472 588.985 837.472C592.153 837.472 594.881 838.198 597.169 839.65C599.457 841.058 601.217 842.95 602.449 845.326C603.725 847.702 604.363 850.32 604.363 853.18C604.363 853.62 604.363 854.104 604.363 854.632C604.363 855.116 604.341 855.666 604.297 856.282H579.679C579.899 859.318 580.889 861.628 582.649 863.212C584.409 864.752 586.477 865.522 588.853 865.522C590.921 865.522 592.549 865.104 593.737 864.268C594.969 863.388 595.871 862.2 596.443 860.704H603.505C602.713 863.828 601.063 866.468 598.555 868.624C596.047 870.736 592.835 871.792 588.919 871.792ZM588.919 843.544C586.763 843.544 584.849 844.204 583.177 845.524C581.505 846.8 580.427 848.604 579.943 850.936H597.367C597.191 848.736 596.333 846.954 594.793 845.59C593.253 844.226 591.295 843.544 588.919 843.544ZM623.873 871L609.683 838.264H617.603L628.097 863.608L638.657 838.264H646.511L632.255 871H623.873Z" fill="#4542F4"/>
</g>
<defs>
<clipPath id="clip0_1179_114">
<rect width="900" height="900" fill="white"/>
</clipPath>
</defs>
</svg>
